<?xml version="1.0" encoding="utf-8"?>
<!-- Generator: Adobe Illustrator 16.0.0, SVG Export Plug-In . SVG Version: 6.00 Build 0)  -->
<!DOCTYPE svg PUBLIC "-//W3C//DTD SVG 1.1//EN" "http://www.w3.org/Graphics/SVG/1.1/DTD/svg11.dtd">
<svg version="1.1" id="Layer_1" xmlns="http://www.w3.org/2000/svg" xmlns:xlink="http://www.w3.org/1999/xlink" x="0px" y="0px"
	 width="690.575px" height="168px" viewBox="0 0 690.575 168" enable-background="new 0 0 690.575 168" xml:space="preserve">
<g>
	<path fill-rule="evenodd" clip-rule="evenodd" fill="#FFFFFF" d="M686.071,164.633c0.006,3.285-0.272,4.49-4.205,4.487
		c-225.666-0.135-451.333-0.125-677-0.064c-2.846,0.001-3.976-0.276-3.967-3.69C1.042,111.866,1.052,58.366,0.887,4.867
		C0.876,1.167,1.996,0.923,5.134,0.925C117.967,1.014,230.8,1,343.634,1c112.667,0,225.333,0.014,338-0.07
		c3.284-0.002,4.504,0.269,4.49,4.204"/>
	<path fill-rule="evenodd" clip-rule="evenodd" fill="#3861AD" d="M117.782,153.095c-7.15-4.128-13.576-7.837-20.661-11.927
		c6.678-4.779,13.457-8.078,20.589-12.229c-0.305,4.09,1.414,4.973,4.885,4.913c14.327-0.244,28.661,0.005,42.991-0.134
		c9.745-0.094,17.791-7.108,19.25-16.379c1.516-9.625-3.657-18.246-13.01-21.579c-3.884-1.384-7.946-1.335-11.793-0.257
		c-3.289,0.922-4.629,0.031-6.011-3.016c-7.345-16.203-23.509-23.332-38.984-17.346c-8.536,3.301-14.437,9.402-17.555,17.966
		c-1.368,3.755-2.744,4.987-7.068,3.413c-13.819-5.031-24.86,1.658-27.453,16.262c-0.53,2.986-1.552,4.211-4.791,4.136
		c-8.967-0.208-17.958,0.493-26.393-3.787c-13.273-6.735-21.211-21.989-18.503-36.117c3.001-15.663,15.27-27.018,30.749-28.063
		c3.366-0.228,5.265-1.566,7.268-4.153c8.753-11.311,20.368-17.455,34.764-17.64c14.662-0.188,29.329-0.113,43.992,0.019
		c3.05,0.027,5.358-0.157,4.782-4.914c7.196,4.183,13.702,7.963,20.792,12.084c-7.196,4.154-13.641,7.875-20.646,11.918
		c0.302-4.272-1.86-4.639-4.91-4.607c-14.163,0.143-28.328,0.043-42.493,0.068c-13.345,0.023-23.024,6.13-28.368,18.258
		c-1.843,4.184-3.808,4.814-7.85,3.748c-8.137-2.146-14.911,0.832-19.873,7.225c-4.771,6.146-5.323,13.297-1.917,20.252
		c3.504,7.154,9.569,10.797,17.665,10.936c2.193,0.037,3.504-0.463,4.612-2.68c6.61-13.227,17.615-19.438,32.245-19.313
		c2.435,0.021,3.755-0.711,5.242-2.713c18.542-24.969,54.075-25.15,72.701-0.356c1.594,2.122,3.087,2.927,5.619,3.126
		c17.144,1.349,30.32,14.088,31.737,30.48c1.51,17.461-8.799,32.023-25.831,36.621c-2.791,0.754-5.597,0.771-8.417,0.777
		c-13.998,0.028-27.996,0.07-41.993-0.033C119.97,148.031,117.136,147.928,117.782,153.095z"/>
	<path fill-rule="evenodd" clip-rule="evenodd" fill="#233D76" d="M555.09,83.876c0,9.008-0.173,17.504,0.083,25.986
		c0.106,3.549-0.527,4.989-4.526,4.82c-7.503-0.316-7.517-0.047-7.518-7.717c-0.002-13.486,0.184-26.977-0.111-40.458
		c-0.091-4.158,1.316-5.353,5.085-4.829c0.979,0.136,2.019,0.158,2.99-0.007c3.676-0.624,5.686,1.165,7.495,4.208
		c4.846,8.152,9.994,16.125,15.061,24.145c0.48,0.761,0.584,1.99,2.535,1.99c0-7.404-0.002-14.794,0.001-22.184
		c0.003-8.438,1.593-9.674,10.109-8.17c1.469,0.259,2.022,0.832,2.022,2.213c0.001,16.154-0.009,32.309,0.042,48.462
		c0.006,1.794-0.769,2.294-2.395,2.245c-2.329-0.07-4.677-0.173-6.99,0.032c-2.642,0.234-4.165-0.688-5.566-3.047
		c-4.756-8.005-9.802-15.838-14.788-23.704C557.776,86.532,557.332,84.823,555.09,83.876z"/>
	<path fill-rule="evenodd" clip-rule="evenodd" fill="#233C75" d="M309.844,82.483c4.058-5.383,8.43-10.563,12.063-16.219
		c2.416-3.76,5.237-5.095,9.467-4.613c2.414,0.275,4.885,0.05,8.437,0.05c-5.121,6.563-9.573,12.425-14.195,18.149
		c-5.488,6.797-5.583,6.771-0.339,13.505c5.296,6.801,10.664,13.545,16.662,21.153c-5.29,0-9.803,0.056-14.312-0.031
		c-1.532-0.03-2.04-1.528-2.839-2.561c-3.943-5.096-7.899-10.182-11.839-15.258c-3.145,2.301-4.536,4.803-4.085,8.358
		c0.291,2.288-0.1,4.655,0.005,6.978c0.088,1.967-0.704,2.761-2.608,2.572c-0.165-0.018-0.333-0.01-0.499,0
		c-9.084,0.51-9.098,0.51-9.1-8.52c-0.002-13.316,0.127-26.633-0.047-39.945c-0.045-3.422,0.823-4.577,4.394-4.49
		c7.805,0.189,7.812-0.01,7.82,8.01c0.004,4.153,0,8.307,0,12.459C309.168,82.216,309.506,82.35,309.844,82.483z"/>
	<path fill-rule="evenodd" clip-rule="evenodd" fill="#233C75" d="M253.87,115.681c-7.636-0.045-14.225-2.826-20.084-7.604
		c-1.807-1.473-2.624-2.768-0.605-4.807c1.858-1.878,3.022-4.97,5.184-5.873c2.195-0.918,3.951,2.338,6.096,3.475
		c3.713,1.969,7.443,3.857,11.748,3.544c2.32-0.169,4.939-0.877,5.605-3.438c0.677-2.601-1.736-3.804-3.59-4.775
		c-5.001-2.621-10.223-4.834-15.157-7.57c-5.877-3.259-10.956-7.31-9.874-15.168c0.865-6.281,6.155-10.993,14.479-12.445
		c9.031-1.576,16.726,1.099,22.915,8.021c1.286,1.438,1.458,2.388-0.097,3.609c-0.909,0.714-1.698,1.589-2.489,2.44
		c-2.666,2.869-5.068,3.896-8.394,0.424c-2.384-2.49-5.812-3.894-9.533-3.289c-1.771,0.289-3.782,0.563-4.304,2.792
		c-0.548,2.343,1.282,3.347,2.863,4.131c3.27,1.622,6.687,2.946,10.015,4.453c3.938,1.782,7.877,3.563,11.052,6.642
		c6.385,6.195,6.319,14.053-0.209,20.094C265.543,113.987,260.524,115.7,253.87,115.681z"/>
	<path fill-rule="evenodd" clip-rule="evenodd" fill="#233C75" d="M442.285,115.659c-8.596,0.026-15.316-2.8-21.247-7.806
		c-1.679-1.417-2.386-2.675-0.403-4.345c0.368-0.311,0.53-0.855,0.871-1.211c1.596-1.667,2.289-4.611,4.592-5.023
		c2.072-0.371,3.421,2.227,5.264,3.262c3.06,1.719,6.195,3.201,9.664,3.865c2.043,0.392,4.011-0.021,5.826-0.907
		c3.253-1.585,3.502-3.79,0.687-6.083c-2.079-1.693-4.572-2.688-6.99-3.803c-4.37-2.016-8.856-3.824-12.822-6.611
		c-4.78-3.359-8.05-7.557-6.955-13.844c1.032-5.924,5.146-9.108,10.397-11.058c9.592-3.561,20.013-0.792,26.853,6.776
		c1.489,1.646,1.558,2.672-0.176,3.924c-0.4,0.289-0.716,0.693-1.076,1.041c-4.943,4.762-4.982,4.816-10.603,0.947
		c-2.696-1.855-5.5-3.157-8.814-2.594c-1.817,0.31-3.669,0.912-4.003,3.155c-0.309,2.072,1.271,3.019,2.737,3.733
		c3.281,1.599,6.675,2.967,9.997,4.486c4.085,1.868,8.156,3.76,11.448,6.954c5.857,5.684,5.902,13.821-0.032,19.382
		C453.025,114.093,447.629,115.896,442.285,115.659z"/>
	<path fill-rule="evenodd" clip-rule="evenodd" fill="#223C75" d="M638.322,115.636c-16.529-0.063-27.403-10.972-27.496-27.337
		c-0.094-16.368,11.14-27.566,27.612-27.632c5.639-0.023,10.829,1.373,15.672,4.223c2.408,1.418,3.649,2.91,0.855,5.185
		c-0.768,0.624-1.434,1.407-2.022,2.208c-2.061,2.801-3.715,4.084-7.559,1.588c-6.153-3.994-14.705-1.697-19.26,4.092
		c-4.538,5.768-4.209,15.904,0.693,21.371c5.095,5.682,13.27,6.679,20.035,2.732c1.444-0.843,2.437-3.62,4.431-2.313
		c2.747,1.8,5.203,4.138,7.461,6.548c1.081,1.154-0.647,2.032-1.405,2.713C651.869,113.929,645.386,116.013,638.322,115.636z"/>
	<path fill-rule="evenodd" clip-rule="evenodd" fill="#233D75" d="M523.269,61.7c-4.689,9.119-8.821,17.594-13.371,25.838
		c-2.67,4.837-4.051,9.731-3.395,15.227c0.195,1.642,0.051,3.325,0.042,4.989c-0.04,6.821-0.043,6.845-6.836,6.81
		c-5.945-0.029-6.122,0.645-5.312-5.186c1.757-12.646-3.739-22.916-9.42-33.306c-2.437-4.456-4.615-9.055-7.308-14.371
		c3.541,0,6.319,0.243,9.036-0.06c3.589-0.4,5.432,1.051,6.718,4.337c1.92,4.907,4.302,9.634,6.88,15.298
		c2.679-5.602,5.261-10.148,7.039-14.99c1.417-3.855,3.578-5.135,7.473-4.643C517.268,61.952,519.79,61.7,523.269,61.7z"/>
	<path fill-rule="evenodd" clip-rule="evenodd" fill="#233C75" d="M357.416,61.915c13.245-0.652,13.248-0.653,18.266,9.985
		c1.326,2.812,2.634,5.632,4.416,9.444c2.699-5.756,5.206-10.535,7.186-15.523c1.321-3.332,3.274-4.545,6.75-4.172
		c2.589,0.277,5.23,0.055,8.278,0.055c-1.413,5.195-4.318,9.112-6.153,13.496c-0.576,1.375-1.335,2.689-2.135,3.951
		c-6.035,9.518-9.599,19.657-7.839,31.12c0.539,3.516-0.829,4.473-4.314,4.384c-7.95-0.201-8.512-0.051-7.923-8.188
		c0.656-9.075-1.745-16.943-6.221-24.623C364.073,75.576,361.026,68.954,357.416,61.915z"/>
</g>
</svg>
